<svg viewBox="0 0 64 64" xmlns="http://www.w3.org/2000/svg"><path d="M47 14a2 2 0 002-2V6a2 2 0 00-4 0v6a2 2 0 002 2zM4 55a3 3 0 003 3h32.633A12.99 12.99 0 0158 39.633V22H4zm41-27a2 2 0 012-2h4a2 2 0 012 2v3a2 2 0 01-2 2h-4a2 2 0 01-2-2zm-12 0a2 2 0 012-2h4a2 2 0 012 2v3a2 2 0 01-2 2h-4a2 2 0 01-2-2zm0 11a2 2 0 012-2h3a1 1 0 010 2h-3v3a1 1 0 010 2 2 2 0 01-2-2zM21 28a2 2 0 012-2h4a2 2 0 012 2v3a2 2 0 01-2 2h-4a2 2 0 01-2-2zm0 11a2 2 0 012-2h4a2 2 0 012 2v3a2 2 0 01-2 2h-4a2 2 0 01-2-2zm0 11a2 2 0 012-2h4a2 2 0 012 2v3a2 2 0 01-2 2h-4a2 2 0 01-2-2zM9 28a2 2 0 012-2h4a2 2 0 012 2v3a2 2 0 01-2 2h-4a2 2 0 01-2-2zm0 11a2 2 0 012-2h4a2 2 0 012 2v3a2 2 0 01-2 2h-4a2 2 0 01-2-2zm0 11a2 2 0 012-2h4a2 2 0 012 2v3a2 2 0 01-2 2h-4a2 2 0 01-2-2z"/><path d="M47 28h4v3h-4zM23 28h4.001v3H23zM35 28h4v3h-4z"/><circle cx="49" cy="49" r="1"/><path d="M49 38a11 11 0 1011 11 11.013 11.013 0 00-11-11zm0 14a3 3 0 01-2.816-2H43a1 1 0 010-2h3.184A3 3 0 0148 46.184V41a1 1 0 012 0v5.184A2.993 2.993 0 0149 52zM15 14a2 2 0 002-2V6a2 2 0 00-4 0v6a2 2 0 002 2zM23 39h4.001v3H23z"/><path d="M4 20h54v-7a3 3 0 00-3-3h-4v2a4 4 0 01-8 0v-2h-8v2a4 4 0 01-8 0v-2h-8v2a4 4 0 01-8 0v-2H7a3 3 0 00-3 3z"/><path d="M31 14a2 2 0 002-2V6a2 2 0 00-4 0v6a2 2 0 002 2zM11 39h4.001v3H11zM11 50h4.001v3H11zM23 50h4.001v3H23zM11 28h4.001v3H11z"/></svg>