<svg xmlns="http://www.w3.org/2000/svg" viewBox="0 0 512.001 512.001"><path d="M69.998 100.008a9.969 9.969 0 00-9.99 9.99 9.962 9.962 0 008.99 9.938 9.97 9.97 0 0010.99-9.938c0-5.53-4.452-9.99-9.99-9.99z"/><path d="M179.995 40c-32.719 0-64.569 11.57-89.684 32.579-4.236 3.543-4.798 9.85-1.254 14.086 3.544 4.236 9.851 4.801 14.086 1.254C124.666 69.915 151.96 60 179.995 60c66.166 0 119.997 53.831 119.997 119.997s-53.831 119.997-119.997 119.997S59.998 246.162 59.998 179.996c0-10.391 1.332-20.7 3.958-30.645 1.41-5.34-1.775-10.812-7.115-12.223-5.341-1.405-10.812 1.776-12.222 7.115a140.1 140.1 0 00-4.621 35.753c0 77.194 62.802 139.996 139.996 139.996S319.99 257.19 319.99 179.996 257.189 40 179.995 40z"/><path d="M497.338 426.638L386.56 315.85c-9.219-9.219-22.993-11.166-34.143-5.854l-25.707-25.707c21.797-30.548 33.28-66.416 33.28-104.293C359.99 80.747 279.245.001 179.995.001S0 80.747 0 179.996s80.746 179.995 179.995 179.995c37.878 0 73.745-11.483 104.293-33.281l25.695 25.695c-5.215 10.896-3.564 24.725 5.868 34.156l110.785 110.774c19.53 19.544 51.158 19.559 70.7.005 19.549-19.535 19.557-51.162.002-70.702zm-317.343-86.646c-88.222 0-159.996-71.773-159.996-159.996C19.999 91.774 91.773 20 179.995 20s159.996 71.773 159.996 159.996c0 88.35-71.547 159.996-159.996 159.996zm120.008-25.854a181.49 181.49 0 0014.137-14.137l22.919 22.919-14.137 14.138-22.919-22.92zM483.194 483.2c-11.72 11.727-30.685 11.734-42.415-.003L329.992 372.42c-3.907-3.908-3.908-10.239 0-14.147l28.279-28.279.002-.002c3.902-3.897 10.246-3.896 14.145.001l110.779 110.79c11.727 11.719 11.738 30.682-.003 42.417z"/></svg>