<?xml version="1.0" encoding="utf-8"?><svg xmlns="http://www.w3.org/2000/svg" xmlns:xlink="http://www.w3.org/1999/xlink"><symbol viewBox="0 0 512 512" id="arrow" xmlns="http://www.w3.org/2000/svg"><path d="M506.134 241.843l-.018-.019-104.504-104c-7.829-7.791-20.492-7.762-28.285.068-7.792 7.829-7.762 20.492.067 28.284L443.558 236H20c-11.046 0-20 8.954-20 20s8.954 20 20 20h423.557l-70.162 69.824c-7.829 7.792-7.859 20.455-.067 28.284 7.793 7.831 20.457 7.858 28.285.068l104.504-104 .018-.019c7.833-7.818 7.808-20.522-.001-28.314z"/></symbol><symbol viewBox="0 0 64 64" id="calendar" xmlns="http://www.w3.org/2000/svg"><path d="M47 14a2 2 0 002-2V6a2 2 0 00-4 0v6a2 2 0 002 2zM4 55a3 3 0 003 3h32.633A12.99 12.99 0 0158 39.633V22H4zm41-27a2 2 0 012-2h4a2 2 0 012 2v3a2 2 0 01-2 2h-4a2 2 0 01-2-2zm-12 0a2 2 0 012-2h4a2 2 0 012 2v3a2 2 0 01-2 2h-4a2 2 0 01-2-2zm0 11a2 2 0 012-2h3a1 1 0 010 2h-3v3a1 1 0 010 2 2 2 0 01-2-2zM21 28a2 2 0 012-2h4a2 2 0 012 2v3a2 2 0 01-2 2h-4a2 2 0 01-2-2zm0 11a2 2 0 012-2h4a2 2 0 012 2v3a2 2 0 01-2 2h-4a2 2 0 01-2-2zm0 11a2 2 0 012-2h4a2 2 0 012 2v3a2 2 0 01-2 2h-4a2 2 0 01-2-2zM9 28a2 2 0 012-2h4a2 2 0 012 2v3a2 2 0 01-2 2h-4a2 2 0 01-2-2zm0 11a2 2 0 012-2h4a2 2 0 012 2v3a2 2 0 01-2 2h-4a2 2 0 01-2-2zm0 11a2 2 0 012-2h4a2 2 0 012 2v3a2 2 0 01-2 2h-4a2 2 0 01-2-2z"/><path d="M47 28h4v3h-4zm-24 0h4.001v3H23zm12 0h4v3h-4z"/><circle cx="49" cy="49" r="1"/><path d="M49 38a11 11 0 1011 11 11.013 11.013 0 00-11-11zm0 14a3 3 0 01-2.816-2H43a1 1 0 010-2h3.184A3 3 0 0148 46.184V41a1 1 0 012 0v5.184A2.993 2.993 0 0149 52zM15 14a2 2 0 002-2V6a2 2 0 00-4 0v6a2 2 0 002 2zm8 25h4.001v3H23z"/><path d="M4 20h54v-7a3 3 0 00-3-3h-4v2a4 4 0 01-8 0v-2h-8v2a4 4 0 01-8 0v-2h-8v2a4 4 0 01-8 0v-2H7a3 3 0 00-3 3z"/><path d="M31 14a2 2 0 002-2V6a2 2 0 00-4 0v6a2 2 0 002 2zM11 39h4.001v3H11zm0 11h4.001v3H11zm12 0h4.001v3H23zM11 28h4.001v3H11z"/></symbol><symbol viewBox="0 0 512 512" id="certificate" xmlns="http://www.w3.org/2000/svg"><path d="M258.773 181.506H66.789a7.5 7.5 0 000 14.998h191.985a7.5 7.5 0 10-.001-14.998zm0 52.696H66.789a7.5 7.5 0 000 14.998h191.985a7.5 7.5 0 10-.001-14.998zm0 52.695H66.789a7.5 7.5 0 000 14.998h191.985a7.5 7.5 0 10-.001-14.998zm7.5 60.196a7.498 7.498 0 00-7.499-7.499H66.789a7.5 7.5 0 000 14.998h191.985a7.498 7.498 0 007.499-7.499zM66.789 416.821a7.5 7.5 0 000 14.998h96.238a7.5 7.5 0 000-14.998zM345.194 92.853V68.519c0-9.27-7.541-16.812-16.812-16.812H174.415c-9.27 0-16.811 7.542-16.811 16.812v24.334c0 9.27 7.541 16.811 16.811 16.811h13.002a7.5 7.5 0 000-14.998h-13.002a1.814 1.814 0 01-1.812-1.812V68.519c0-.999.813-1.813 1.812-1.813h153.967c1 0 1.813.813 1.813 1.813v24.334c0 .999-.813 1.812-1.813 1.812H222.477a7.5 7.5 0 000 14.998h105.906c9.27.002 16.811-7.54 16.811-16.81z"/><path d="M401.268 457.296a7.5 7.5 0 00-7.499 7.499v10.099c0 12.189-9.917 22.107-22.108 22.107H39.899c-12.189 0-22.107-9.917-22.107-22.107V114.428c0-1.623.19-3.215.529-4.764h68.283c14.256 0 25.854-11.598 25.854-25.854V15.528a22.247 22.247 0 014.763-.529H371.66c12.19 0 22.108 9.917 22.108 22.107v99.842a7.5 7.5 0 0014.998 0V37.105C408.767 16.646 392.121 0 371.661 0H117.222c-9.911 0-19.23 3.86-26.238 10.868L13.661 88.191c-7.008 7.008-10.867 16.326-10.867 26.238v360.466c0 20.46 16.645 37.105 37.105 37.105h331.762c20.46 0 37.106-16.646 37.106-37.105v-10.099a7.5 7.5 0 00-7.499-7.5zM97.46 25.604V83.81c0 5.986-4.87 10.856-10.856 10.856H28.398z"/><path d="M503.982 267.999c5.264-7.727 6.626-17.258 3.737-26.15s-9.594-15.802-18.394-18.958c-5.838-2.094-9.733-7.454-9.919-13.654-.283-9.345-4.784-17.857-12.349-23.353-7.563-5.495-17.051-7.144-26.023-4.526-5.958 1.738-12.255-.31-16.051-5.215-5.721-7.395-14.365-11.636-23.715-11.636-9.349 0-17.994 4.241-23.716 11.636-3.796 4.906-10.097 6.951-16.05 5.215-8.973-2.62-18.46-.969-26.025 4.526-7.564 5.496-12.063 14.007-12.347 23.352-.187 6.2-4.081 11.559-9.92 13.654-8.8 3.156-15.505 10.067-18.393 18.958-2.889 8.892-1.527 18.424 3.737 26.15 3.492 5.127 3.492 11.751 0 16.877-5.264 7.727-6.626 17.258-3.737 26.15 2.888 8.892 9.593 15.802 18.393 18.959 5.839 2.095 9.734 7.454 9.92 13.654a29.983 29.983 0 0025.893 28.8v68.278a15.93 15.93 0 008.154 13.895 15.93 15.93 0 0016.107-.341l27.505-16.932c.448-.277.715-.152.962 0l27.503 16.932a15.932 15.932 0 0016.108.34 15.93 15.93 0 008.154-13.895v-68.279a29.98 29.98 0 0025.893-28.799c.186-6.2 4.081-11.56 9.919-13.654 8.801-3.156 15.506-10.067 18.394-18.959 2.889-8.892 1.527-18.423-3.737-26.15-3.496-5.124-3.496-11.748-.003-16.875zm-66.867 173.499l-27.504-16.932a15.917 15.917 0 00-16.687 0l-27.504 16.931a.912.912 0 01-1.399-.782v-69.701c5.156-.597 10.268 1.501 13.531 5.718 5.723 7.394 14.367 11.635 23.717 11.635 9.349 0 17.993-4.241 23.714-11.635 3.264-4.218 8.377-6.315 13.532-5.718v69.701a.913.913 0 01-1.4.783zm54.472-148.176c2.632 3.862 3.312 8.625 1.868 13.069s-4.795 7.898-9.194 9.476c-11.682 4.19-19.472 14.913-19.847 27.318-.133 4.361-2.05 8.292-5.397 11.07-3.763 3.123-8.859 4.301-13.781 2.865-11.913-3.476-24.52.62-32.116 10.434a14.887 14.887 0 01-11.853 5.815 14.89 14.89 0 01-11.854-5.815c-5.799-7.496-14.52-11.656-23.623-11.656a30.28 30.28 0 00-8.49 1.221c-4.97 1.448-10.051.234-13.784-2.865-3.347-2.778-5.264-6.709-5.395-11.069-.376-12.405-8.166-23.128-19.849-27.319a14.89 14.89 0 01-9.193-9.475 14.884 14.884 0 011.868-13.07c6.987-10.257 6.987-23.51 0-33.767a14.886 14.886 0 01-1.868-13.071 14.885 14.885 0 019.193-9.475c11.683-4.191 19.473-14.914 19.849-27.319a14.88 14.88 0 016.17-11.671 14.888 14.888 0 0113.008-2.263c11.91 3.477 24.52-.62 32.114-10.434a14.887 14.887 0 0111.854-5.816c4.673 0 8.993 2.119 11.853 5.815 7.595 9.815 20.199 13.911 32.115 10.435a14.881 14.881 0 0113.007 2.262 14.88 14.88 0 016.171 11.671c.376 12.405 8.166 23.129 19.848 27.319a14.886 14.886 0 019.194 9.475 14.884 14.884 0 01-1.868 13.07c-6.989 10.258-6.989 23.513 0 33.77z"/><path d="M401.268 213.583c-34.658 0-62.854 28.196-62.854 62.854s28.196 62.854 62.854 62.854c34.657 0 62.853-28.196 62.853-62.854s-28.196-62.854-62.853-62.854zm0 110.71c-26.388 0-47.856-21.468-47.856-47.855s21.468-47.856 47.856-47.856 47.855 21.468 47.855 47.856-21.468 47.855-47.855 47.855z"/></symbol><symbol viewBox="0 0 512 512" id="like" xmlns="http://www.w3.org/2000/svg"><path d="M482 287c0-24.813-20.187-45-45-45h-66.833c8.28-22.387 13.415-48.978 16.417-69.121a70.494 70.494 0 00-16.327-56.473A70.25 70.25 0 00317 92c-8.284 0-15 6.716-15 15 0 36.237-20.825 90.941-45.128 103.126-27.356 13.713-81.172 28.91-91.891 31.874H15.001c-8.284 0-15 6.716-15 15v210C0 475.284 6.716 482 15 482h45v15c0 8.284 6.716 15 15 15h62c18.321 0 34.108-11.011 41.122-26.758l105.24 26.31c1.19.297 2.412.448 3.638.448h90c24.813 0 45-20.187 45-45a44.773 44.773 0 00-3.164-16.579C437.924 445.211 452 427.718 452 407a44.773 44.773 0 00-3.164-16.579C467.924 385.211 482 367.718 482 347c0-11.515-4.347-22.033-11.486-30 7.139-7.967 11.486-18.485 11.486-30zM59.999 452h-30V272h30v180zm92 15c0 8.271-6.729 15-15 15h-47V272h62v195zM347 332h90c8.271 0 15 6.729 15 15s-6.729 15-15 15h-90c-8.284 0-15 6.716-15 15s6.716 15 15 15h60c8.271 0 15 6.729 15 15s-6.729 15-15 15h-60c-8.284 0-15 6.716-15 15s6.716 15 15 15h30c8.271 0 15 6.729 15 15s-6.729 15-15 15h-88.153L182 455.289V268.376c20.238-5.811 63.165-18.822 88.316-31.431 34.45-17.271 55.545-71.899 60.535-112.494a40.296 40.296 0 0116.684 11.542 40.515 40.515 0 019.378 32.462c-7.105 47.654-16.018 67.215-23.329 81.836A15 15 0 00347 272h90c8.271 0 15 6.729 15 15s-6.729 15-15 15h-90c-8.284 0-15 6.716-15 15s6.716 15 15 15zM332 0c-8.284 0-15 6.716-15 15v32c0 8.284 6.716 15 15 15s15-6.716 15-15V15c0-8.284-6.716-15-15-15zm-84.853 75.934l-21.213-21.213c-5.857-5.858-15.355-5.858-21.213 0-5.858 5.858-5.858 15.355 0 21.213l21.213 21.213c5.857 5.858 15.356 5.858 21.213 0 5.858-5.858 5.858-15.355 0-21.213z"/><path d="M196.999 167h-30c-8.284 0-15 6.716-15 15s6.716 15 15 15h30c8.284 0 15-6.716 15-15s-6.716-15-15-15zM497 167h-30c-8.284 0-15 6.716-15 15s6.716 15 15 15h30c8.284 0 15-6.716 15-15s-6.716-15-15-15zM459.279 54.721c-5.857-5.858-15.355-5.858-21.213 0l-21.213 21.213c-5.858 5.858-5.858 15.355 0 21.213 5.857 5.858 15.356 5.858 21.213 0l21.213-21.213c5.858-5.858 5.858-15.355 0-21.213z"/></symbol><symbol viewBox="0 0 426.667 426.667" id="mail" xmlns="http://www.w3.org/2000/svg"><path d="M384 42.667H42.667C19.094 42.667.214 61.76.214 85.334L0 341.333C0 364.907 19.093 384 42.667 384H384c23.573 0 42.667-19.093 42.667-42.667v-256c0-23.573-19.094-42.666-42.667-42.666zM384 128L213.333 234.667 42.667 128V85.333L213.333 192 384 85.333V128z"/></symbol><symbol viewBox="0 0 492.004 492.004" id="next" xmlns="http://www.w3.org/2000/svg"><path d="M484.14 226.886L306.46 49.202c-5.072-5.072-11.832-7.856-19.04-7.856-7.216 0-13.972 2.788-19.044 7.856l-16.132 16.136c-5.068 5.064-7.86 11.828-7.86 19.04 0 7.208 2.792 14.2 7.86 19.264L355.9 207.526H26.58C11.732 207.526 0 219.15 0 234.002v22.812c0 14.852 11.732 27.648 26.58 27.648h330.496L252.248 388.926c-5.068 5.072-7.86 11.652-7.86 18.864 0 7.204 2.792 13.88 7.86 18.948l16.132 16.084c5.072 5.072 11.828 7.836 19.044 7.836 7.208 0 13.968-2.8 19.04-7.872l177.68-177.68c5.084-5.088 7.88-11.88 7.86-19.1.016-7.244-2.776-14.04-7.864-19.12z"/></symbol><symbol viewBox="0 0 513.64 513.64" id="phone" xmlns="http://www.w3.org/2000/svg"><path d="M499.66 376.96l-71.68-71.68c-25.6-25.6-69.12-15.359-79.36 17.92-7.68 23.041-33.28 35.841-56.32 30.72-51.2-12.8-120.32-79.36-133.12-133.12-7.68-23.041 7.68-48.641 30.72-56.32 33.28-10.24 43.52-53.76 17.92-79.36l-71.68-71.68c-20.48-17.92-51.2-17.92-69.12 0L18.38 62.08c-48.64 51.2 5.12 186.88 125.44 307.2s256 176.641 307.2 125.44l48.64-48.64c17.921-20.48 17.921-51.2 0-69.12z"/></symbol><symbol viewBox="0 0 512 512" id="pin" xmlns="http://www.w3.org/2000/svg"><path d="M256 0C156.011 0 74.667 81.344 74.667 181.333c0 96.725 165.781 317.099 172.843 326.443 1.984 2.667 5.163 4.224 8.491 4.224 3.328 0 6.507-1.557 8.491-4.224 7.061-9.344 172.843-229.717 172.843-326.443C437.333 81.344 355.989 0 256 0zm0 277.333c-52.928 0-96-43.072-96-96s43.072-96 96-96 96 43.072 96 96-43.072 96-96 96z"/></symbol><symbol viewBox="0 0 512.001 512.001" id="search" xmlns="http://www.w3.org/2000/svg"><path d="M69.998 100.008a9.969 9.969 0 00-9.99 9.99 9.962 9.962 0 008.99 9.938 9.97 9.97 0 0010.99-9.938c0-5.53-4.452-9.99-9.99-9.99z"/><path d="M179.995 40c-32.719 0-64.569 11.57-89.684 32.579-4.236 3.543-4.798 9.85-1.254 14.086 3.544 4.236 9.851 4.801 14.086 1.254C124.666 69.915 151.96 60 179.995 60c66.166 0 119.997 53.831 119.997 119.997s-53.831 119.997-119.997 119.997S59.998 246.162 59.998 179.996c0-10.391 1.332-20.7 3.958-30.645 1.41-5.34-1.775-10.812-7.115-12.223-5.341-1.405-10.812 1.776-12.222 7.115a140.1 140.1 0 00-4.621 35.753c0 77.194 62.802 139.996 139.996 139.996S319.99 257.19 319.99 179.996 257.189 40 179.995 40z"/><path d="M497.338 426.638L386.56 315.85c-9.219-9.219-22.993-11.166-34.143-5.854l-25.707-25.707c21.797-30.548 33.28-66.416 33.28-104.293C359.99 80.747 279.245.001 179.995.001S0 80.747 0 179.996s80.746 179.995 179.995 179.995c37.878 0 73.745-11.483 104.293-33.281l25.695 25.695c-5.215 10.896-3.564 24.725 5.868 34.156l110.785 110.774c19.53 19.544 51.158 19.559 70.7.005 19.549-19.535 19.557-51.162.002-70.702zm-317.343-86.646c-88.222 0-159.996-71.773-159.996-159.996C19.999 91.774 91.773 20 179.995 20s159.996 71.773 159.996 159.996c0 88.35-71.547 159.996-159.996 159.996zm120.008-25.854a181.49 181.49 0 0014.137-14.137l22.919 22.919-14.137 14.138-22.919-22.92zM483.194 483.2c-11.72 11.727-30.685 11.734-42.415-.003L329.992 372.42c-3.907-3.908-3.908-10.239 0-14.147l28.279-28.279.002-.002c3.902-3.897 10.246-3.896 14.145.001l110.779 110.79c11.727 11.719 11.738 30.682-.003 42.417z"/></symbol><symbol viewBox="0 0 512.002 512.002" id="star" xmlns="http://www.w3.org/2000/svg"><path d="M511.267 197.258a14.995 14.995 0 00-12.107-10.209l-158.723-23.065-70.985-143.827a14.998 14.998 0 00-26.901 0l-70.988 143.827-158.72 23.065a14.998 14.998 0 00-8.312 25.585l114.848 111.954-27.108 158.083a14.999 14.999 0 0021.763 15.812l141.967-74.638 141.961 74.637a15 15 0 0021.766-15.813l-27.117-158.081 114.861-111.955a14.994 14.994 0 003.795-15.375z"/></symbol><symbol viewBox="0 0 512 512" id="telegram" xmlns="http://www.w3.org/2000/svg"><circle cx="255.997" cy="256" r="255.997" fill="#41b4e6"/><path d="M512 256.003c0-6.238-.235-12.419-.673-18.546L405.228 131.36 106.772 248.759l114.191 114.192 1.498 5.392 1.939-1.955.008.008-1.947 1.947L348.778 494.66C444.298 457.5 512 364.663 512 256.003z" fill="#0091c8"/><path fill="#fff" d="M231.138 293.3l115.691 87.347 58.399-249.287-298.457 117.399 90.817 30.081 165.743-111.176z"/><path fill="#d2d2d7" d="M197.588 278.84l24.873 89.504 8.677-75.044 132.193-125.636z"/><path fill="#b9b9be" d="M268.738 321.688l-46.277 46.656 8.677-75.044z"/></symbol><symbol viewBox="0 0 512 512" id="viber" xmlns="http://www.w3.org/2000/svg"><path d="M307.207 0H204.794C105.969 0 25.571 80.398 25.571 179.223v76.81c0 69.381 40.014 132.344 102.413 161.961v85.537c0 7.427 9.291 11.31 14.569 6.035l74.309-74.31h90.344c98.824 0 179.223-80.398 179.223-179.223v-76.81C486.429 80.398 406.03 0 307.207 0z" fill="#665cac"/><path d="M153.587 417.993c-62.399-29.618-102.413-92.58-102.413-161.961v-76.81C51.174 80.398 131.573 0 230.397 0h-25.603C105.969 0 25.571 80.398 25.571 179.223v76.81c0 69.381 40.014 132.344 102.413 161.961v85.537c0 7.427 9.291 11.31 14.569 6.035l11.034-11.034v-80.539z" fill="#523494"/><path d="M384.85 318.101l-7.673-41.566a8.536 8.536 0 00-6.719-6.82l-60.347-12.069a8.54 8.54 0 00-7.71 2.334l-24.517 24.518c-41.308-18.509-64.234-41.485-84.406-84.566l24.438-24.437a8.541 8.541 0 002.334-7.71l-12.069-60.348a8.536 8.536 0 00-6.82-6.719l-41.566-7.672a8.554 8.554 0 00-3.44.07 59.554 59.554 0 00-28.96 15.996c-13.802 13.802-19.077 33.942-15.253 58.243 6.419 40.806 26.411 97.594 63.296 134.627l.504.5c37.004 36.859 93.793 56.853 134.601 63.273 5.141.81 10.092 1.211 14.84 1.211 17.695 0 32.52-5.582 43.405-16.465a59.57 59.57 0 0015.995-28.959 8.613 8.613 0 00.067-3.441z" fill="#fff"/><g fill="#e5e5e5"><path d="M209.571 183.839l8.344-8.345.009-.009-8.354 8.353zm84.405 84.558l8.425-8.426.002.001-8.426 8.426z"/><path d="M341.473 350.871c-4.748 0-9.699-.401-14.84-1.211-40.807-6.42-97.596-26.414-134.601-63.273l-.504-.5c-36.885-37.033-56.877-93.821-63.296-134.627-3.089-19.633-.233-36.548 8.256-49.601a59.76 59.76 0 00-9.097 7.452c-13.802 13.802-19.077 33.942-15.253 58.243 6.419 40.806 26.411 97.594 63.296 134.627l.504.5c37.004 36.859 93.793 56.853 134.601 63.273 5.141.81 10.092 1.211 14.84 1.211 17.695 0 32.52-5.581 43.405-16.465a59.805 59.805 0 007.451-9.096c-9.637 6.268-21.377 9.467-34.762 9.467z"/></g><g fill="#fff"><path d="M273.069 145.085a8.534 8.534 0 000 17.068c18.824 0 34.138 15.314 34.138 34.138 0 4.65 3.884 8.534 8.534 8.534s8.534-3.884 8.534-8.534c.001-28.236-22.97-51.206-51.206-51.206z"/><path d="M273.069 110.947c-3.157 0-6.343.175-9.471.52-4.685.517-8.064 4.734-7.547 9.42s4.743 8.056 9.42 7.547a69.48 69.48 0 017.598-.418c37.647 0 68.275 30.628 68.275 68.275 0 2.535-.141 5.091-.418 7.599-.51 4.621 2.924 8.911 7.547 9.42 4.622.509 8.909-2.924 9.42-7.547.345-3.128.52-6.314.52-9.472 0-47.058-38.285-85.344-85.344-85.344z"/><path d="M273.069 76.81c-3.05 0-6.139.116-9.179.347a8.536 8.536 0 00-7.866 9.155c.355 4.7 4.469 8.222 9.155 7.866 2.613-.199 5.268-.299 7.89-.299 56.471 0 102.413 45.942 102.413 102.413 0 7.99-.922 15.944-2.74 23.64-1.043 4.41 1.673 8.994 6.046 10.192 4.601 1.26 9.469-1.625 10.565-6.266a120.027 120.027 0 003.198-27.566c0-65.883-53.599-119.482-119.482-119.482z"/></g></symbol><symbol viewBox="-1 0 512 512" id="whatsapp" xmlns="http://www.w3.org/2000/svg"><path d="M10.895 512A10.895 10.895 0 01.387 498.23l33.285-121.546C12.949 339.21 2.023 296.82 2.039 253.789 2.098 113.848 115.98 0 255.91 0c67.871.027 131.645 26.465 179.578 74.434 47.926 47.972 74.309 111.742 74.29 179.558-.063 139.945-113.946 253.801-253.868 253.801h-.11c-40.87-.016-81.39-9.977-117.468-28.844L13.656 511.645c-.914.238-1.843.355-2.761.355zm0 0" fill="#e5e5e5"/><path d="M10.895 501.105l34.468-125.87c-21.261-36.84-32.445-78.63-32.43-121.442C12.989 119.859 121.98 10.895 255.91 10.895c64.992.027 125.996 25.324 171.871 71.238 45.871 45.914 71.125 106.945 71.102 171.855-.059 133.93-109.067 242.91-242.973 242.91-.008 0 .004 0 0 0h-.105c-40.664-.015-80.618-10.214-116.106-29.57zm134.77-77.75l7.378 4.372c31 18.398 66.543 28.128 102.789 28.148h.078c111.305 0 201.899-90.578 201.945-201.902.02-53.95-20.964-104.68-59.093-142.84-38.133-38.16-88.832-59.188-142.778-59.211C144.59 51.922 54 142.488 53.957 253.809c-.016 38.148 10.656 75.296 30.875 107.445l4.805 7.64-20.407 74.5zm0 0" fill="#fff"/><path d="M19.344 492.625l33.277-121.52c-20.531-35.562-31.324-75.91-31.312-117.234.05-129.297 105.273-234.488 234.558-234.488 62.75.027 121.645 24.449 165.922 68.773 44.29 44.324 68.664 103.242 68.64 165.899-.054 129.3-105.28 234.504-234.55 234.504-.012 0 .004 0 0 0h-.106c-39.253-.016-77.828-9.868-112.085-28.54zm0 0" fill="#64b161"/><g fill="#fff"><path d="M10.895 501.105l34.468-125.87c-21.261-36.84-32.445-78.63-32.43-121.442C12.989 119.859 121.98 10.895 255.91 10.895c64.992.027 125.996 25.324 171.871 71.238 45.871 45.914 71.125 106.945 71.102 171.855-.059 133.93-109.067 242.91-242.973 242.91-.008 0 .004 0 0 0h-.105c-40.664-.015-80.618-10.214-116.106-29.57zm134.77-77.75l7.378 4.372c31 18.398 66.543 28.128 102.789 28.148h.078c111.305 0 201.899-90.578 201.945-201.902.02-53.95-20.964-104.68-59.093-142.84-38.133-38.16-88.832-59.188-142.778-59.211C144.59 51.922 54 142.488 53.957 253.809c-.016 38.148 10.656 75.296 30.875 107.445l4.805 7.64-20.407 74.5zm0 0"/><path d="M195.184 152.246c-4.547-10.11-9.336-10.312-13.664-10.488-3.54-.153-7.59-.145-11.633-.145-4.047 0-10.625 1.524-16.188 7.598-5.566 6.074-21.254 20.762-21.254 50.633 0 29.875 21.758 58.738 24.793 62.793 3.035 4.05 42 67.308 103.707 91.644 51.285 20.227 61.72 16.203 72.852 15.192 11.133-1.012 35.918-14.688 40.976-28.864 5.063-14.175 5.063-26.324 3.543-28.867-1.52-2.527-5.566-4.047-11.636-7.082-6.07-3.035-35.918-17.726-41.485-19.75-5.566-2.027-9.613-3.035-13.66 3.043-4.05 6.07-15.676 19.742-19.219 23.79-3.543 4.058-7.086 4.566-13.156 1.527-6.07-3.043-25.625-9.45-48.82-30.133-18.047-16.09-30.235-35.965-33.777-42.043-3.54-6.07-.06-9.07 2.667-12.387 4.91-5.973 13.149-16.71 15.172-20.758 2.024-4.054 1.012-7.597-.504-10.637-1.52-3.035-13.32-33.058-18.714-45.066zm0 0" fill-rule="evenodd"/></g></symbol></svg>